<svg xmlns="http://www.w3.org/2000/svg" viewBox="0 0 90 90" width="90" height="90" fill="none"><path fill="#000" fill-rule="evenodd" d="M4.5 24a8.5 8.5 0 0 1 8.5-8.5h63.897a8.5 8.5 0 0 1 8.5 8.5v17.266h-5V24a3.5 3.5 0 0 0-3.5-3.5H13A3.5 3.5 0 0 0 9.5 24v7.235h59.038v5H9.5V66.36a3.5 3.5 0 0 0 3.5 3.5h26.82v5H13a8.5 8.5 0 0 1-8.5-8.5V24Z" clip-rule="evenodd"></path><path fill="#EE4D2D" fill-rule="evenodd" d="M65.461 51.27c-3.532 0-7.065.825-10.619 2.512a25.657 25.657 0 0 0-8.982 7.048l-3.874-3.162a30.655 30.655 0 0 1 10.712-8.403c4.16-1.974 8.421-2.995 12.763-2.995 4.34 0 8.602 1.011 12.768 2.997a30.81 30.81 0 0 1 10.706 8.399l-3.87 3.167a25.812 25.812 0 0 0-8.988-7.053c-3.548-1.691-7.08-2.51-10.616-2.51Zm0 11.247c-1.953 0-3.99.456-6.13 1.432-2.1.957-3.795 2.249-5.142 3.878l-3.853-3.186c1.857-2.246 4.173-3.989 6.92-5.241 2.706-1.234 5.448-1.883 8.205-1.883 2.756 0 5.505.648 8.207 1.883 2.75 1.255 5.063 3.006 6.916 5.237l-3.847 3.194c-1.351-1.627-3.05-2.926-5.144-3.882h-.003c-2.13-.975-4.173-1.432-6.129-1.432Z" clip-rule="evenodd"></path><path fill="#EE4D2D" d="M71.615 74.462a6.154 6.154 0 1 1-12.307 0 6.154 6.154 0 0 1 12.307 0Z"></path></svg>