<svg xmlns="http://www.w3.org/2000/svg" viewBox="0 0 90 90" width="90" height="90" fill="none"><path fill="#000" fill-rule="evenodd" d="M64.002 4.808A5.5 5.5 0 0 1 70 10.285V19h5a8.5 8.5 0 0 1 8.5 8.5v14h-5v-14A3.5 3.5 0 0 0 75 24H15v-5h50v-8.715a.5.5 0 0 0-.545-.498l-51.772 4.707A3.5 3.5 0 0 0 9.5 17.979V69.5A3.5 3.5 0 0 0 13 73h24v5H13a8.5 8.5 0 0 1-8.5-8.5V17.98a8.5 8.5 0 0 1 7.73-8.466l51.772-4.706Z" clip-rule="evenodd"></path><path fill="#EE4D2D" fill-rule="evenodd" d="M82.313 51.307a2 2 0 0 1 0 3.385l-10.747 6.77c-1.332.838-3.066-.12-3.066-1.693V55.5H43v-5h25.5v-4.27c0-1.573 1.734-2.53 3.066-1.692l10.747 6.77ZM57.5 72.5v4.27c0 1.573-1.734 2.53-3.066 1.692l-10.747-6.77a2 2 0 0 1 0-3.384l10.747-6.77c1.332-.838 3.066.12 3.066 1.693V67.5H83v5H57.5Z" clip-rule="evenodd"></path></svg>