<svg xmlns="http://www.w3.org/2000/svg" viewBox="0 0 90 90" width="90" height="90" fill="none"><path fill="#000" fill-rule="evenodd" d="M11 18.5A3.5 3.5 0 0 0 7.5 22v10.32c6.103.72 10.764 6.017 10.764 12.338 0 6.32-4.66 11.617-10.764 12.337v9.22a3.5 3.5 0 0 0 3.5 3.5h26.223v5H11a8.5 8.5 0 0 1-8.5-8.5V54.517a2.5 2.5 0 0 1 2.781-2.484c.26.03.526.045.796.045 3.914 0 7.187-3.266 7.187-7.42 0-4.155-3.273-7.42-7.187-7.42-.27 0-.535.014-.796.044A2.5 2.5 0 0 1 2.5 34.798V22a8.5 8.5 0 0 1 8.5-8.5h64.939a8.5 8.5 0 0 1 8.5 8.5v14.146h-5V22a3.5 3.5 0 0 0-3.5-3.5H11Z" clip-rule="evenodd"></path><path fill="#000" fill-rule="evenodd" d="M27.107 33.446v-9.692h5v9.692h-5ZM27.107 48.954V39.26h5v9.693h-5ZM27.107 64.462v-9.693h5v9.693h-5Z" clip-rule="evenodd"></path><path fill="#EE4D2D" fill-rule="evenodd" d="m61.536 38.974-3.58 6.148a8 8 0 0 1-5.22 3.792l-6.954 1.506 4.74 5.306a8 8 0 0 1 1.994 6.136l-.716 7.08 6.51-2.87a8 8 0 0 1 6.453 0l6.51 2.87-.716-7.08a8 8 0 0 1 1.993-6.136l4.741-5.306-6.954-1.506a8 8 0 0 1-5.22-3.792l-3.58-6.148Zm2.593-5.484c-1.157-1.987-4.028-1.987-5.185 0l-5.31 9.116a3 3 0 0 1-1.956 1.422l-10.31 2.232c-2.248.487-3.135 3.217-1.603 4.931l7.029 7.866a3 3 0 0 1 .748 2.301l-1.063 10.496c-.232 2.287 2.09 3.974 4.194 3.047l9.654-4.254a3 3 0 0 1 2.42 0l9.653 4.254c2.103.927 4.426-.76 4.194-3.047l-1.063-10.495a3 3 0 0 1 .748-2.302l7.029-7.866c1.532-1.714.645-4.444-1.603-4.93l-10.31-2.233a3 3 0 0 1-1.957-1.422l-5.31-9.116Z" clip-rule="evenodd"></path></svg>