<svg xmlns="http://www.w3.org/2000/svg" width="396" height="248" viewBox="0 0 396 248" fill="none">
<g clip-path="url(#clip0_33847_2597)">
<path d="M95.3925 216.928H10.4351V225.996H95.3925V216.928Z" fill="url(#paint0_linear_33847_2597)"/>
<path d="M246.585 22H217.157C215.66 22 214.448 23.2122 214.448 24.7093V48.1061H180.771V24.7093C180.767 23.2122 179.554 22 178.057 22H148.629C147.132 22 145.92 23.2122 145.92 24.7093V48.1061H112.243V24.7093C112.239 23.2122 111.023 22 109.526 22H80.0978C78.6007 22 77.3843 23.2122 77.3843 24.7093V226H249.294V24.7093C249.294 23.2122 248.082 22 246.585 22Z" fill="#F0F1F1"/>
<path d="M103.282 22H132.71C134.207 22 135.419 23.2122 135.419 24.7093V48.1061H169.096V24.7093C169.1 23.2122 170.312 22 171.809 22H201.237C202.734 22 203.947 23.2122 203.947 24.7093V48.1061H237.623V24.7093C237.628 23.2122 238.844 22 240.341 22H269.769C271.266 22 272.478 23.2122 272.478 24.7093V226H100.573V24.7093C100.573 23.2122 101.785 22 103.282 22Z" fill="#FFD16A"/>
<path opacity="0.5" d="M254.305 209.06H291.869C292.844 209.06 293.634 208.269 293.634 207.294V193.633C293.634 192.658 292.844 191.868 291.869 191.868H254.305C253.33 191.868 252.539 192.658 252.539 193.633V207.294C252.539 208.269 253.33 209.06 254.305 209.06Z" fill="#F8F8F8"/>
<path opacity="0.5" d="M252.743 156.945H290.308C291.282 156.945 292.073 156.155 292.073 155.18V141.519C292.073 140.544 291.282 139.754 290.308 139.754H252.743C251.769 139.754 250.978 140.544 250.978 141.519V155.18C250.978 156.155 251.769 156.945 252.743 156.945Z" fill="#F8F8F8"/>
<path opacity="0.5" d="M75.8026 93.3728H113.367C114.342 93.3728 115.132 92.5826 115.132 91.6077V77.9465C115.132 76.9717 114.342 76.1814 113.367 76.1814H75.8026C74.8278 76.1814 74.0375 76.9717 74.0375 77.9465V91.6077C74.0375 92.5826 74.8278 93.3728 75.8026 93.3728Z" fill="#F8F8F8"/>
<path opacity="0.5" d="M256.988 75.437H294.552C295.527 75.437 296.317 74.6468 296.317 73.6719V60.0107C296.317 59.0359 295.527 58.2456 294.552 58.2456H256.988C256.013 58.2456 255.223 59.0359 255.223 60.0107V73.6719C255.223 74.6468 256.013 75.437 256.988 75.437Z" fill="#F8F8F8"/>
<path opacity="0.5" d="M87.2904 209.71H124.855C125.829 209.71 126.62 208.92 126.62 207.945V194.284C126.62 193.309 125.829 192.519 124.855 192.519H87.2904C86.3156 192.519 85.5253 193.309 85.5253 194.284V207.945C85.5253 208.92 86.3156 209.71 87.2904 209.71Z" fill="#F8F8F8"/>
<path opacity="0.5" d="M73.3099 147.673H110.874C111.849 147.673 112.639 146.883 112.639 145.908V132.247C112.639 131.272 111.849 130.482 110.874 130.482H73.3099C72.3351 130.482 71.5448 131.272 71.5448 132.247V145.908C71.5448 146.883 72.3351 147.673 73.3099 147.673Z" fill="#F8F8F8"/>
<path opacity="0.5" d="M162.074 193.693H199.638C200.613 193.693 201.403 192.902 201.403 191.928V178.266C201.403 177.291 200.613 176.501 199.638 176.501H162.074C161.099 176.501 160.309 177.291 160.309 178.266V191.928C160.309 192.902 161.099 193.693 162.074 193.693Z" fill="#F8F8F8"/>
<path opacity="0.5" d="M179.516 92.3435H217.081C218.055 92.3435 218.846 91.5533 218.846 90.5784V76.9172C218.846 75.9424 218.055 75.1521 217.081 75.1521H179.516C178.542 75.1521 177.751 75.9424 177.751 76.9172V90.5784C177.751 91.5533 178.542 92.3435 179.516 92.3435Z" fill="#F8F8F8"/>
<path d="M169.1 24.7093V48.1061H145.916V24.7093C145.916 23.2122 147.128 22 148.625 22H171.809C170.312 22 169.1 23.2122 169.1 24.7093Z" fill="url(#paint1_linear_33847_2597)"/>
<path d="M80.098 22H103.282C101.785 22 100.573 23.2122 100.573 24.7093V226H77.3887V24.7093C77.3887 23.2122 78.6008 22 80.098 22Z" fill="url(#paint2_linear_33847_2597)"/>
<path d="M237.627 24.7093V48.1061H214.443V24.7093C214.443 23.2122 215.656 22 217.153 22H240.337C238.84 22 237.627 23.2122 237.627 24.7093Z" fill="url(#paint3_linear_33847_2597)"/>
<path d="M184.301 189.537H194.704V183.642H184.301V189.537Z" fill="#EE4D2D"/>
<path d="M233.017 81.1235V129.772C233.017 152.496 219.224 173.452 197.018 184.463L189.005 188.436C186.041 189.907 182.561 189.907 179.597 188.436L171.584 184.463C149.378 173.452 135.585 152.496 135.585 129.772V81.1235H233.017Z" fill="#EE4D2D"/>
<path d="M145.988 81.1235V129.772C145.988 152.492 159.781 173.452 181.987 184.463L190 188.436C191.48 189.172 193.092 189.537 194.704 189.537H184.301C182.689 189.537 181.077 189.172 179.597 188.436L171.584 184.463C149.378 173.452 135.585 152.496 135.585 129.772V81.1235H145.988Z" fill="url(#paint4_linear_33847_2597)"/>
<path d="M243.42 81.1235V129.772C243.42 152.496 229.627 173.452 207.421 184.463L199.408 188.436C196.444 189.907 192.965 189.907 190 188.436L181.987 184.463C159.781 173.452 145.988 152.496 145.988 129.772V81.1235H243.42Z" fill="#EE4D2D"/>
<path d="M231.06 94.5552V130.856C231.06 147.814 220.768 163.453 204.197 171.67L198.217 174.634C196.006 175.732 193.407 175.732 191.195 174.634L185.215 171.67C168.645 163.453 158.352 147.814 158.352 130.856V94.5552H231.06Z" fill="#F47961"/>
<path d="M194.705 133.931C201.197 133.931 206.46 128.668 206.46 122.175C206.46 115.683 201.197 110.42 194.705 110.42C188.212 110.42 182.949 115.683 182.949 122.175C182.949 128.668 188.212 133.931 194.705 133.931Z" fill="#941800"/>
<path d="M190.647 146.448H198.758V128.372H190.647V146.448Z" fill="#941800"/>
<path d="M284.613 110.453C283.8 110.415 282.988 110.47 282.18 110.534C282.137 110.045 281.971 109.501 281.691 109.109C281.372 108.671 280.729 108.463 280.351 108.952C280.143 109.224 280.057 109.599 280.028 109.964C280.028 109.964 280.045 109.722 280.045 109.65C280.028 109.037 279.824 108.28 279.296 107.91C279.062 107.744 278.752 107.685 278.484 107.799C278.288 107.885 278.152 108.05 278.058 108.233C277.935 107.795 277.705 107.383 277.323 107.183C277.059 107.042 276.736 107.03 276.481 107.208C276.425 107.247 276.378 107.289 276.336 107.34C276.247 106.868 276.03 106.383 275.617 106.17C275.375 106.047 275.085 106.039 274.856 106.2C274.618 106.37 274.516 106.672 274.452 106.949C274.209 108.029 274.55 109.292 275.57 109.845C275.77 109.952 278.773 111.67 278.871 111.734C279.339 112.031 281.499 112.925 282.078 113.163C282.924 113.507 283.796 113.784 284.681 114.022C285.476 114.235 286.335 114.473 287.165 114.468C287.356 114.468 287.058 111.287 286.914 111.159C286.28 110.585 285.425 110.496 284.604 110.458L284.613 110.453Z" fill="#F4C18F"/>
<path d="M346.628 97.1409L232.958 109.586" stroke="#0046AB" stroke-width="7.58344" stroke-miterlimit="10"/>
<path d="M250.766 129.257L248.431 107.91" stroke="#0046AB" stroke-width="7.58344" stroke-miterlimit="10"/>
<path d="M272.325 126.896L269.99 105.55" stroke="#0046AB" stroke-width="7.58344" stroke-miterlimit="10"/>
<path d="M252.607 111.241L245.073 112.066L245.48 115.778L253.014 114.953L252.607 111.241Z" fill="url(#paint5_linear_33847_2597)"/>
<path d="M274.169 108.882L266.635 109.708L267.041 113.42L274.575 112.595L274.169 108.882Z" fill="url(#paint6_linear_33847_2597)"/>
<path d="M344.323 101.209L343.498 93.675L339.025 94.1649L339.85 101.699L344.323 101.209Z" fill="url(#paint7_linear_33847_2597)"/>
<path d="M364.075 111.121C373.948 111.121 381.951 103.118 381.951 93.2451C381.951 83.3723 373.948 75.3689 364.075 75.3689C354.202 75.3689 346.199 83.3723 346.199 93.2451C346.199 103.118 354.202 111.121 364.075 111.121Z" stroke="#0046AB" stroke-width="7.89392" stroke-miterlimit="10"/>
<path d="M338.135 175.11L327.311 176.961L323.342 152.156L336.587 153.632L338.135 175.11Z" fill="#F4C18F"/>
<path d="M330.245 223.963C331.397 223.201 336.557 219.705 337.314 218.991L327.663 178.335L338.241 176.302L347.126 225.983L337.288 225.949L330.445 225.923C329.381 225.923 329.058 224.745 330.245 223.963Z" fill="#F4C18F"/>
<path d="M347.611 223.718L328.65 223.652C328.016 223.649 327.5 224.161 327.498 224.794C327.496 225.427 328.008 225.942 328.642 225.944L347.603 226.01C348.237 226.013 348.753 225.501 348.755 224.868C348.757 224.235 348.245 223.72 347.611 223.718Z" fill="#F69113"/>
<path d="M327.978 223.856L335.225 218.816C335.54 218.612 336.255 218.782 336.255 219.165L339.028 225.647L328.399 225.481L327.978 223.861V223.856Z" fill="#F69113"/>
<path d="M332.754 181.788C335.784 181.788 338.241 179.332 338.241 176.302C338.241 173.271 335.784 170.815 332.754 170.815C329.724 170.815 327.268 173.271 327.268 176.302C327.268 179.332 329.724 181.788 332.754 181.788Z" fill="#F4C18F"/>
<path d="M338.981 166.608H323.215L320.607 133.48H335.608L338.981 166.608Z" fill="#303030"/>
<path d="M322.02 151.433L322.555 146.219L324.261 146.418L327.272 166.608H323.223L322.02 151.433Z" fill="url(#paint8_linear_33847_2597)"/>
<path d="M314.381 177.173L303.28 176.28L306.278 150.659H318.498L314.381 177.173Z" fill="#F4C18F"/>
<path d="M292.936 223.963C294.089 223.201 299.248 219.705 300.005 218.991L303.246 176.867L314.287 177.926L309.817 225.983L299.979 225.949L293.136 225.923C292.073 225.923 291.75 224.745 292.936 223.963Z" fill="#F4C18F"/>
<path d="M310.302 223.715L291.341 223.649C290.707 223.647 290.191 224.158 290.189 224.791C290.187 225.424 290.699 225.939 291.333 225.941L310.294 226.008C310.928 226.01 311.444 225.498 311.446 224.865C311.448 224.232 310.936 223.717 310.302 223.715Z" fill="#F69113"/>
<path d="M290.669 223.856L297.916 218.816C298.231 218.612 298.946 218.782 298.946 219.165L301.719 225.647L291.09 225.481L290.669 223.861V223.856Z" fill="#F69113"/>
<path d="M308.817 182.443C311.892 182.443 314.385 179.95 314.385 176.876C314.385 173.801 311.892 171.308 308.817 171.308C305.743 171.308 303.25 173.801 303.25 176.876C303.25 179.95 305.743 182.443 308.817 182.443Z" fill="#F4C18F"/>
<path d="M301.8 166.609H319.102L325.414 133.787L306.227 133.634L301.8 166.609Z" fill="#303030"/>
<path d="M334.941 133.595H306.278V146.117H334.941V133.595Z" fill="#303030"/>
<path d="M309.439 137.125L305.479 166.608" stroke="#A7A7A7" stroke-width="0.425319" stroke-miterlimit="10"/>
<path d="M331.269 109.993L339.848 108.442L341.698 118.671C342.141 121.119 340.512 123.466 338.064 123.909C335.779 124.322 333.584 122.8 333.171 120.515L331.269 109.993Z" fill="#F4C18F"/>
<path d="M326.025 102.202L328.365 116.238L341.796 114.073L338.708 99.7781L326.025 102.202Z" fill="#EE4D2D"/>
<path d="M335.787 105.009H329.067C327.391 105.009 326.03 103.648 326.03 101.973V94.3084C326.03 92.6326 327.391 91.2716 329.067 91.2716C334.451 91.2716 338.828 95.6439 338.828 101.033V101.977C338.828 103.653 337.467 105.014 335.791 105.014L335.787 105.009Z" fill="#EE4D2D"/>
<path d="M334.652 115.226L341.797 114.073L338.709 99.7781H334.396L334.652 115.226Z" fill="url(#paint9_linear_33847_2597)"/>
<path d="M324.567 89.7489L316.427 89.8595L315.661 81.7827L323.789 81.0469L324.567 89.7489Z" fill="#F4C18F"/>
<path d="M322.823 69.6443C322.228 68.9128 321.403 68.3599 320.509 68.0622C320.412 68.0324 320.314 68.0026 320.216 67.9771C320.195 67.9728 320.169 67.9686 320.148 67.9601C320.144 67.9601 320.118 67.9516 320.093 67.9431C319.382 67.7261 318.621 67.6156 317.881 67.5518C317.273 67.5007 316.66 67.4965 316.048 67.539C315.461 67.5815 314.848 67.6411 314.296 67.8452C313.56 68.1174 312.96 68.6618 312.518 69.2956C311.935 70.1335 311.573 70.882 311.446 71.8985C311.378 72.4217 311.344 74.2378 311.335 74.7694C311.327 75.3436 310.03 76.7939 309.553 77.2958C308.86 78.0316 310.731 78.8525 310.795 79.1375C310.833 79.3118 310.876 79.499 310.923 79.6946H312.696C312.696 80.5453 312.173 81.2683 311.433 81.5703C311.642 82.2721 311.854 82.8888 312.007 83.2035C312.581 84.3774 314.521 84.3349 315.414 84.3859C315.725 84.4029 320.994 84.5177 323.84 84.1222C323.844 83.6926 323.925 70.9713 322.836 69.6358L322.823 69.6443Z" fill="#F4C18F"/>
<path d="M312.688 79.7073H310.914C311.059 80.3027 311.242 80.9747 311.42 81.5829C312.16 81.2852 312.683 80.5579 312.683 79.7073H312.688Z" fill="#D1966C"/>
<path d="M323.869 81.7827L322.547 81.7742L321.556 79.6646L319.544 75.4114C315.197 75.8963 314.614 70.8818 314.614 70.8818H311.463C312.547 67.5175 315.933 66.4925 317.758 66.433C320.441 66.3479 323.597 67.0327 325.324 69.1678C329.403 74.2078 325.273 80.158 323.865 81.7827H323.869Z" fill="#491F17"/>
<path d="M320.505 79.5585C321.719 79.5585 322.704 78.5645 322.704 77.3383C322.704 76.1122 321.719 75.1182 320.505 75.1182C319.291 75.1182 318.306 76.1122 318.306 77.3383C318.306 78.5645 319.291 79.5585 320.505 79.5585Z" fill="#F4C18F"/>
<path d="M311.204 73.7061V76.5344" stroke="#2D2A2B" stroke-width="0.5997" stroke-linecap="round" stroke-linejoin="round"/>
<path d="M318.068 75.1182H311.467" stroke="#2D2A2B" stroke-width="0.5997" stroke-linecap="round" stroke-linejoin="round"/>
<path d="M332.087 91.2717L326.804 88.9835C323.359 87.4906 319.451 87.5034 316.018 89.0175L310.906 91.2717C309.056 92.2074 307.252 93.3132 307.495 95.98L306.946 114.681L305.475 139.775H336.383L335.498 95.98C335.74 93.3132 333.937 92.2074 332.087 91.2717Z" fill="#EE4D2D"/>
<path d="M316.559 139.75H305.479L307.457 106.494L316.176 102.84L316.559 139.75Z" fill="url(#paint10_linear_33847_2597)"/>
<path d="M302.743 107.406L311.282 109.167L309.183 119.348C308.681 121.784 306.294 123.355 303.857 122.853C301.583 122.384 300.115 120.153 300.584 117.878L302.743 107.406Z" fill="#F4C18F"/>
<path d="M316.176 101.909L314.181 113.886L300.911 111.432L303.493 99.4846L316.176 101.909Z" fill="#EE4D2D"/>
<path d="M313.135 90.9781C314.811 90.9781 316.172 92.3392 316.172 94.0149V101.679C316.172 103.355 314.811 104.716 313.135 104.716H306.415C304.739 104.716 303.378 103.355 303.378 101.679V100.735C303.378 95.3504 307.75 90.9739 313.139 90.9739L313.135 90.9781Z" fill="#EE4D2D"/>
<path d="M304.705 123.081C307.082 123.081 309.009 121.154 309.009 118.777C309.009 116.4 307.082 114.473 304.705 114.473C302.327 114.473 300.4 116.4 300.4 118.777C300.4 121.154 302.327 123.081 304.705 123.081Z" fill="#F4C18F"/>
<path d="M286.314 114.218L302.723 122.609L305.955 114.694L288.262 110.126L286.314 114.218Z" fill="#F4C18F"/>
<path d="M283.992 105.711C283.217 105.226 282.418 104.716 281.572 104.363C281.031 104.137 280.495 104.176 280.006 104.486C279.73 104.665 279.458 104.852 279.185 105.035C278.947 105.192 278.62 105.345 278.45 105.575C278.288 105.796 278.352 106.073 278.509 106.277C278.684 106.502 278.96 106.617 279.237 106.655C279.866 106.749 280.551 106.54 281.099 106.23C281.129 106.213 281.146 106.192 281.159 106.166L287.849 110.075C287.917 110.168 287.985 110.266 288.053 110.356C288.177 110.526 288.466 110.364 288.343 110.194C287.679 109.292 287.101 108.323 286.344 107.489C285.676 106.753 284.838 106.222 284 105.694L283.992 105.711Z" fill="#F4C18F"/>
<path d="M285.799 108.544C284.485 107.715 283.171 106.885 281.857 106.056C281.559 105.869 281.261 105.677 280.959 105.49C280.955 105.486 280.946 105.482 280.938 105.477C280.938 105.477 280.908 105.465 280.891 105.46C280.836 105.448 280.785 105.469 280.751 105.512C280.746 105.516 280.742 105.52 280.738 105.529L280.729 105.537C280.708 105.567 280.7 105.601 280.708 105.643C280.708 105.643 280.712 105.673 280.721 105.686C281.061 106.332 280.729 107.183 280.3 107.698C279.747 108.353 278.926 108.684 278.127 108.931C278.003 108.969 277.965 109.144 278.088 109.212C279.101 109.803 280.109 110.394 281.121 110.981C282.733 111.921 284.34 112.861 285.952 113.801C286.322 114.014 286.688 114.231 287.058 114.447C287.143 114.498 287.258 114.447 287.284 114.354C287.598 113.167 287.913 111.981 288.224 110.794C288.27 110.624 288.313 110.454 288.36 110.284C288.377 110.216 288.347 110.147 288.287 110.109L285.791 108.536L285.799 108.544Z" fill="#F4C18F"/>
</g>
<defs>
<linearGradient id="paint0_linear_33847_2597" x1="37.4301" y1="221.462" x2="122.383" y2="221.462" gradientUnits="userSpaceOnUse">
<stop stop-color="#D0D2D3" stop-opacity="0"/>
<stop offset="1" stop-color="#F0F1F1"/>
</linearGradient>
<linearGradient id="paint1_linear_33847_2597" x1="166.761" y1="35.053" x2="119.308" y2="35.053" gradientUnits="userSpaceOnUse">
<stop stop-color="#FFC645"/>
<stop offset="1" stop-color="#FFC645" stop-opacity="0.47"/>
</linearGradient>
<linearGradient id="paint2_linear_33847_2597" x1="98.2336" y1="124" x2="50.7807" y2="124" gradientUnits="userSpaceOnUse">
<stop stop-color="#FFC645"/>
<stop offset="1" stop-color="#FFC645" stop-opacity="0.47"/>
</linearGradient>
<linearGradient id="paint3_linear_33847_2597" x1="235.288" y1="35.053" x2="187.835" y2="35.053" gradientUnits="userSpaceOnUse">
<stop stop-color="#FFC645"/>
<stop offset="1" stop-color="#FFC645" stop-opacity="0.47"/>
</linearGradient>
<linearGradient id="paint4_linear_33847_2597" x1="160.998" y1="140.268" x2="123.421" y2="94.6274" gradientUnits="userSpaceOnUse">
<stop stop-color="#D95100"/>
<stop offset="1" stop-color="#D95100" stop-opacity="0"/>
</linearGradient>
<linearGradient id="paint5_linear_33847_2597" x1="248.836" y1="111.654" x2="249.242" y2="115.362" gradientUnits="userSpaceOnUse">
<stop stop-color="#155EC1"/>
<stop offset="0.13" stop-color="#155EC1" stop-opacity="0.98"/>
<stop offset="0.27" stop-color="#155EC1" stop-opacity="0.91"/>
<stop offset="0.42" stop-color="#155EC1" stop-opacity="0.79"/>
<stop offset="0.58" stop-color="#155EC1" stop-opacity="0.63"/>
<stop offset="0.74" stop-color="#155EC1" stop-opacity="0.42"/>
<stop offset="0.9" stop-color="#155EC1" stop-opacity="0.17"/>
<stop offset="1" stop-color="#155EC1" stop-opacity="0"/>
</linearGradient>
<linearGradient id="paint6_linear_33847_2597" x1="270.402" y1="109.295" x2="270.808" y2="113.003" gradientUnits="userSpaceOnUse">
<stop stop-color="#155EC1"/>
<stop offset="0.13" stop-color="#155EC1" stop-opacity="0.98"/>
<stop offset="0.27" stop-color="#155EC1" stop-opacity="0.91"/>
<stop offset="0.42" stop-color="#155EC1" stop-opacity="0.79"/>
<stop offset="0.58" stop-color="#155EC1" stop-opacity="0.63"/>
<stop offset="0.74" stop-color="#155EC1" stop-opacity="0.42"/>
<stop offset="0.9" stop-color="#155EC1" stop-opacity="0.17"/>
<stop offset="1" stop-color="#155EC1" stop-opacity="0"/>
</linearGradient>
<linearGradient id="paint7_linear_33847_2597" x1="343.915" y1="97.4417" x2="339.442" y2="97.9315" gradientUnits="userSpaceOnUse">
<stop stop-color="#155EC1"/>
<stop offset="0.13" stop-color="#155EC1" stop-opacity="0.98"/>
<stop offset="0.27" stop-color="#155EC1" stop-opacity="0.91"/>
<stop offset="0.42" stop-color="#155EC1" stop-opacity="0.79"/>
<stop offset="0.58" stop-color="#155EC1" stop-opacity="0.63"/>
<stop offset="0.74" stop-color="#155EC1" stop-opacity="0.42"/>
<stop offset="0.9" stop-color="#155EC1" stop-opacity="0.17"/>
<stop offset="1" stop-color="#155EC1" stop-opacity="0"/>
</linearGradient>
<linearGradient id="paint8_linear_33847_2597" x1="324.869" y1="156.418" x2="315.053" y2="156.749" gradientUnits="userSpaceOnUse">
<stop stop-color="#D0D2D3" stop-opacity="0"/>
<stop offset="0.05" stop-color="#D0D2D3" stop-opacity="0.09"/>
<stop offset="0.27" stop-color="#D0D2D3" stop-opacity="0.41"/>
<stop offset="0.46" stop-color="#D0D2D3" stop-opacity="0.66"/>
<stop offset="0.62" stop-color="#D0D2D3" stop-opacity="0.85"/>
<stop offset="0.76" stop-color="#D0D2D3" stop-opacity="0.96"/>
<stop offset="0.84" stop-color="#D0D2D3"/>
</linearGradient>
<linearGradient id="paint9_linear_33847_2597" x1="339.815" y1="106.149" x2="333.069" y2="109.195" gradientUnits="userSpaceOnUse">
<stop stop-color="#C84300" stop-opacity="0"/>
<stop offset="0.22" stop-color="#C84300" stop-opacity="0.15"/>
<stop offset="0.56" stop-color="#C84300" stop-opacity="0.34"/>
<stop offset="0.83" stop-color="#C84300" stop-opacity="0.46"/>
<stop offset="1" stop-color="#C84300" stop-opacity="0.5"/>
</linearGradient>
<linearGradient id="paint10_linear_33847_2597" x1="305.632" y1="120.061" x2="314.913" y2="122.269" gradientUnits="userSpaceOnUse">
<stop stop-color="#C84300" stop-opacity="0.5"/>
<stop offset="0.27" stop-color="#C84300" stop-opacity="0.39"/>
<stop offset="0.84" stop-color="#C84300" stop-opacity="0.09"/>
<stop offset="1" stop-color="#C84300" stop-opacity="0"/>
</linearGradient>
<clipPath id="clip0_33847_2597">
<rect width="375.467" height="204" fill="white" transform="translate(10.4351 22)"/>
</clipPath>
</defs>
</svg>