<svg width="110" height="110" viewBox="0 0 110 110" fill="none" xmlns="http://www.w3.org/2000/svg"><path d="M8.14795 22.3748C8.14795 18.9302 10.6782 16.008 14.089 15.5135L64.3818 8.22136C68.5655 7.61475 72.3146 10.8575 72.3146 15.0827V55.0327C72.3146 58.4773 69.7844 61.3995 66.3736 61.894L16.0808 69.1861C11.8971 69.7928 8.14795 66.55 8.14795 62.3248V22.3748Z" fill="#FFC645"></path><path d="M8.14795 29.7671C8.14795 25.7025 11.3718 22.4075 15.3486 22.4075H78.3547C82.3315 22.4075 85.5554 25.7025 85.5554 29.7671V72.0849C85.5554 76.1495 82.3315 79.4445 78.3547 79.4445H15.3486C11.3718 79.4445 8.14795 76.1495 8.14795 72.0849V29.7671Z" fill="#EE4D2D"></path><path d="M46.4653 48.6042C45.43 56.2651 38.3902 61.6485 30.7293 60.6132C23.0684 59.578 17.685 52.5382 18.7203 44.8773C19.7555 37.2163 26.7953 31.833 34.4562 32.8682C42.1172 33.9035 47.5005 40.9433 46.4653 48.6042Z" fill="#FFC645"></path><path fill-rule="evenodd" clip-rule="evenodd" d="M28.166 40.2575C29.0687 39.4319 30.2051 39.011 31.0442 38.8391C32.7555 38.4885 34.3145 38.8402 35.487 39.3508C36.3972 39.7472 36.8138 40.8064 36.4174 41.7166C36.021 42.6269 34.9617 43.0434 34.0515 42.647C33.3705 42.3504 32.5748 42.1954 31.7658 42.3612C31.3448 42.4474 30.8744 42.6525 30.5923 42.9105C30.4668 43.0253 30.411 43.1203 30.3855 43.1901C30.3641 43.2489 30.3359 43.3629 30.3803 43.5797C30.4253 43.799 30.4915 43.8908 30.5323 43.9369C30.5816 43.9926 30.6795 44.0751 30.8934 44.1663C31.4017 44.383 32.0993 44.4785 33.211 44.6306L33.2146 44.6311C34.2879 44.7779 35.4804 45.0301 36.4908 45.6459C37.5978 46.3206 38.3773 47.3638 38.6725 48.8049C38.9662 50.2384 38.5521 51.5862 37.6762 52.6093C36.8265 53.6018 35.5981 54.2372 34.2555 54.5123C31.6418 55.0478 29.8036 54.0914 29.021 53.6444C28.1589 53.152 27.8592 52.054 28.3516 51.1919C28.844 50.3298 29.942 50.0301 30.8041 50.5225C31.2961 50.8035 32.1872 51.2662 33.5338 50.9903C34.2615 50.8412 34.7165 50.5382 34.9452 50.2711C35.1476 50.0346 35.2069 49.8018 35.1505 49.5265C35.0567 49.069 34.879 48.8739 34.6197 48.7158C34.2636 48.4988 33.6804 48.3235 32.7273 48.1931C32.6534 48.183 32.5771 48.1728 32.4988 48.1622C31.6099 48.043 30.456 47.8881 29.4835 47.4736C28.2601 46.952 27.2018 45.9781 26.8583 44.3014C26.4981 42.5435 27.1823 41.1571 28.166 40.2575Z" fill="white"></path><path d="M74.5027 82.8808C75.5333 84.9729 78.0919 85.7953 80.1893 84.7062C82.2911 83.6187 83.1656 81.0198 82.135 78.9292L77.5296 69.5665C76.5004 67.4774 73.9418 66.6536 71.8429 67.7441C69.7426 68.8301 68.8666 71.4275 69.8958 73.5196L74.5027 82.8808ZM82.1754 78.9885C83.2061 81.0776 85.7646 81.9029 87.8664 80.8139C89.9667 79.7278 90.8398 77.1275 89.8092 75.0354L85.2038 65.6742C84.1731 63.585 81.6189 62.7597 79.5171 63.8502C77.4168 64.9348 76.5408 67.5322 77.5686 69.6258L82.1754 78.9885ZM89.8511 75.0961C90.8803 77.1897 93.4374 78.0091 95.5392 76.9245C97.638 75.8369 98.514 73.2351 97.4819 71.146L92.8751 61.7818C91.8459 59.6897 89.2917 58.8703 87.1899 59.9564C85.0896 61.0439 84.2136 63.6443 85.2414 65.7349L89.8511 75.0961ZM99.2686 74.8205C98.8248 73.9197 99.3365 74.9583 99.8193 75.9392C100.045 76.4015 99.6748 75.6458 99.2686 74.8205Z" fill="#FFC645"></path><path d="M71.2255 72.9731C70.523 73.3376 69.6629 73.0516 69.3117 72.3271L60.9566 55.3486C60.244 53.9025 57.7635 52.1037 55.2194 53.4209C52.6753 54.7396 52.6796 57.9919 53.3214 59.2987C53.6727 60.0129 58.2434 69.3059 62.3212 77.5855C65.7022 84.4531 68.7363 90.6287 68.7363 90.6287L60.7528 88.221C58.1075 87.3275 55.4232 88.5143 54.7539 91.6318C54.0818 94.2499 55.8554 96.8532 58.2116 97.6414L69.0529 101.289C74.6398 103.17 80.4406 102.488 85.7095 99.7484L86.4973 99.3409L87.5988 98.889L94.5474 95.2885L96.3832 94.1254C101.509 90.3116 103.404 83.2218 100.458 77.2388C100.458 77.2388 100.146 76.6017 99.822 75.9409C99.569 75.4312 98.5832 73.428 96.0637 68.3058L71.2255 72.9731Z" fill="#FFC645"></path><path d="M54.6656 58.7871C53.9269 57.2491 54.4704 55.4237 55.8885 54.711C57.2993 54.0013 59.0484 54.6754 59.7798 56.209C60.5199 57.747 55.4028 60.3206 54.6656 58.7871ZM58.3126 95.8363C56.6098 95.3681 55.6037 93.5738 56.0562 91.8254C56.5173 90.08 58.2692 89.0473 59.9691 89.5155C61.6734 89.9866 60.0168 96.3089 58.3126 95.8363Z" fill="#FFCDD2"></path></svg>