<svg width="110" height="110" viewBox="0 0 110 110" fill="none" xmlns="http://www.w3.org/2000/svg"><path d="M62.7516 9.02289C64.1439 9.80576 65.589 10.6184 69.3305 8.87207C71.6959 7.13763 73.5369 8.34028 74.8534 9.20028C75.5159 9.63305 76.0456 9.97904 76.4424 9.82032L69.7726 34.2762C86.0738 41.3251 97.7779 59.0213 97.7779 73.8277C97.7779 92.7926 78.5759 102.275 55.1067 102.275C31.6376 102.275 12.4355 92.7926 12.4355 73.8277C12.4355 59.0213 24.1397 41.325 40.441 34.2761L33.771 9.82032C35.9442 8.67675 37.4524 9.02281 39.0718 9.39441C40.8087 9.79295 42.6736 10.2209 45.6243 8.87207C49.925 6.90628 51.041 7.87027 52.1089 8.79265C53.1011 9.64975 54.0518 10.4709 57.4774 8.87207C60.286 7.63651 61.4974 8.31764 62.7516 9.02289Z" fill="#EE4D2D"></path><path fill-rule="evenodd" clip-rule="evenodd" d="M38.672 33.4489C39.3697 32.2279 40.9252 31.8037 42.1462 32.5015C44.3157 33.7412 48.3423 34.5366 53.9213 34.5366C56.6666 34.5366 59.9087 34.3449 62.6741 33.9673C64.0591 33.7782 65.2733 33.5494 66.2228 33.2919C66.6967 33.1634 67.0704 33.0369 67.3491 32.9199C67.6177 32.8072 67.7263 32.733 67.7387 32.7245C67.7399 32.7237 67.7402 32.7235 67.7396 32.7239C68.8377 31.8454 70.4401 32.0235 71.3186 33.1216C72.1971 34.2197 72.0191 35.8221 70.9209 36.7006C70.7818 36.8119 70.6345 36.9167 70.4808 37.0155C71.3723 37.5509 72.2883 38.1641 73.2088 38.8575C77.2085 41.8707 81.3745 46.4612 83.939 52.8724C88.8487 65.1465 88.8486 76.7652 88.8486 78.6339V78.6374C88.8486 80.0437 87.7086 81.1837 86.3023 81.1837C84.8961 81.1837 83.756 80.0437 83.756 78.6374C83.756 76.9496 83.753 66.1195 79.2107 54.7637C77.0477 49.3562 73.5315 45.4766 70.1445 42.9251C68.4506 41.649 66.8096 40.7211 65.4228 40.1093C63.9864 39.4756 62.9768 39.2484 62.5236 39.2233C62.3855 39.2156 62.2505 39.197 62.1195 39.1685C59.4138 39.4769 56.469 39.6292 53.9213 39.6292C51.5844 39.6292 49.3548 39.5017 47.3054 39.2239C46.1569 39.2914 44.5563 39.9206 42.8552 40.9357C41.2021 41.9222 39.7786 43.0763 39.0551 43.7998C37.2994 45.5555 35.5098 47.3987 35.0478 50.6325C34.8489 52.0246 33.5591 52.992 32.167 52.7931C30.7748 52.5942 29.8075 51.3044 30.0064 49.9123C30.7177 44.9334 33.5941 42.0581 35.3892 40.2636C35.411 40.2418 35.4326 40.2202 35.4541 40.1988C36.395 39.2579 37.9109 38.0296 39.6402 36.9349C39.6333 36.9309 39.6264 36.927 39.6195 36.9231C38.3985 36.2254 37.9743 34.6699 38.672 33.4489Z" fill="#FFC645"></path><path d="M71.0806 72.3977C69.8793 81.2874 61.7105 87.5341 52.8208 86.3328C43.9312 85.1315 37.6844 76.9627 38.8857 68.073C40.087 59.1834 48.2559 52.9366 57.1455 54.1379C66.0352 55.3392 72.2819 63.5081 71.0806 72.3977Z" fill="#FFC645"></path><path fill-rule="evenodd" clip-rule="evenodd" d="M49.8463 62.7125C50.8937 61.7546 52.2124 61.2662 53.1861 61.0667C55.1718 60.6598 56.9809 61.0679 58.3415 61.6605C59.3977 62.1204 59.881 63.3495 59.421 64.4058C58.9611 65.462 57.732 65.9453 56.6757 65.4853C55.8855 65.1412 54.9622 64.9613 54.0235 65.1537C53.5349 65.2537 52.9891 65.4917 52.6617 65.7911C52.5161 65.9243 52.4513 66.0345 52.4218 66.1156C52.3969 66.1837 52.3642 66.316 52.4158 66.5677C52.4679 66.8221 52.5447 66.9286 52.5921 66.9821C52.6493 67.0467 52.7629 67.1425 53.0111 67.2483C53.601 67.4998 54.4105 67.6105 55.7004 67.787L55.7046 67.7876C56.95 67.958 58.3338 68.2506 59.5062 68.9652C60.7909 69.7482 61.6953 70.9586 62.0379 72.6308C62.3787 74.2942 61.8982 75.8582 60.8818 77.0454C59.8958 78.1971 58.4703 78.9345 56.9124 79.2537C53.8795 79.8751 51.7465 78.7652 50.8384 78.2465C49.8381 77.6752 49.4903 76.4011 50.0617 75.4007C50.633 74.4003 51.9072 74.0526 52.9075 74.6239C53.4785 74.95 54.5124 75.4869 56.0751 75.1667C56.9194 74.9937 57.4474 74.6422 57.7127 74.3322C57.9477 74.0578 58.0164 73.7876 57.951 73.4682C57.8422 72.9373 57.636 72.711 57.335 72.5275C56.9219 72.2757 56.2451 72.0723 55.1391 71.9209C55.0534 71.9092 54.9649 71.8973 54.8739 71.8851C53.8426 71.7467 52.5036 71.5671 51.3751 71.086C49.9555 70.4808 48.7274 69.3506 48.3288 67.405C47.9109 65.3652 48.7048 63.7565 49.8463 62.7125Z" fill="white"></path></svg>