<svg width="108" height="108" viewBox="0 0 108 108" fill="none" xmlns="http://www.w3.org/2000/svg"><path d="M16 25.0496H92V83.9999C92 88.4181 88.4183 91.9999 84 91.9999H24C19.5817 91.9999 16 88.4181 16 83.9999V25.0496Z" fill="#FFD16A"></path><path fill-rule="evenodd" clip-rule="evenodd" d="M24 16C19.5817 16 16 19.5817 16 24V25.0496V28.6667V83.9999C16 88.4182 19.5817 91.9999 24 91.9999H84C88.4183 91.9999 92 88.4181 92 83.9999V25.0496L92 24C92 19.5817 88.4183 16 84 16H24ZM21 30.0496H87V83.9999C87 85.6567 85.6569 86.9999 84 86.9999H24C22.3431 86.9999 21 85.6567 21 83.9999V30.0496Z" fill="#EE4D2D"></path><path d="M22.3333 20.2223C21.7734 20.2223 21.2364 20.4447 20.8405 20.8406C20.4446 21.2365 20.2222 21.7735 20.2222 22.3334C20.2222 22.8933 20.4446 23.4303 20.8405 23.8262C21.2364 24.2221 21.7734 24.4445 22.3333 24.4445C22.8932 24.4445 23.4302 24.2221 23.8261 23.8262C24.222 23.4303 24.4444 22.8933 24.4444 22.3334C24.4444 21.7735 24.222 21.2365 23.8261 20.8406C23.4302 20.4447 22.8932 20.2223 22.3333 20.2223ZM30.7777 20.2223C30.2178 20.2223 29.6809 20.4447 29.2849 20.8406C28.889 21.2365 28.6666 21.7735 28.6666 22.3334C28.6666 22.8933 28.889 23.4303 29.2849 23.8262C29.6809 24.2221 30.2178 24.4445 30.7777 24.4445C31.3376 24.4445 31.8746 24.2221 32.2705 23.8262C32.6664 23.4303 32.8888 22.8933 32.8888 22.3334C32.8888 21.7735 32.6664 21.2365 32.2705 20.8406C31.8746 20.4447 31.3376 20.2223 30.7777 20.2223Z" fill="white"></path><path fill-rule="evenodd" clip-rule="evenodd" d="M35 41C34.4696 41 33.9609 41.2107 33.5858 41.5858C33.2107 41.9609 33 42.4696 33 43C33 43.5304 33.2107 44.0391 33.5858 44.4142C33.9609 44.7893 34.4696 45 35 45H38.6L42 55.2618V65C42 68.3 44.7 71 48 71H49C48.2043 71 47.4413 71.3161 46.8787 71.8787C46.3161 72.4413 46 73.2044 46 74C46 74.7956 46.3161 75.5587 46.8787 76.1213C47.4413 76.6839 48.2043 77 49 77C49.7957 77 50.5587 76.6839 51.1213 76.1213C51.6839 75.5587 52 74.7956 52 74C52 73.2044 51.6839 72.4413 51.1213 71.8787C50.5587 71.3161 49.7957 71 49 71H64C63.2043 71 62.4413 71.3161 61.8787 71.8787C61.3161 72.4413 61 73.2044 61 74C61 74.7956 61.3161 75.5587 61.8787 76.1213C62.4413 76.6839 63.2043 77 64 77C64.7956 77 65.5587 76.6839 66.1213 76.1213C66.6839 75.5587 67 74.7956 67 74C67 73.2044 66.6839 72.4413 66.1213 71.8787C65.5587 71.3161 64.7956 71 64 71H67V67H48C46.9 67 46 66.1 46 65V63H65C65.8 63 66.5 62.5 66.8 61.8L74.4 45H42.8L42.4 43.7C41.8 42.1 40.3 41 38.6 41H35Z" fill="white"></path><path d="M64 73C63.7348 73 63.4804 73.1054 63.2929 73.2929C63.1054 73.4804 63 73.7348 63 74C63 74.2652 63.1054 74.5196 63.2929 74.7071C63.4804 74.8946 63.7348 75 64 75C64.2652 75 64.5196 74.8946 64.7071 74.7071C64.8946 74.5196 65 74.2652 65 74C65 73.7348 64.8946 73.4804 64.7071 73.2929C64.5196 73.1054 64.2652 73 64 73ZM49 73C48.7348 73 48.4804 73.1054 48.2929 73.2929C48.1054 73.4804 48 73.7348 48 74C48 74.2652 48.1054 74.5196 48.2929 74.7071C48.4804 74.8946 48.7348 75 49 75C49.2652 75 49.5196 74.8946 49.7071 74.7071C49.8946 74.5196 50 74.2652 50 74C50 73.7348 49.8946 73.4804 49.7071 73.2929C49.5196 73.1054 49.2652 73 49 73Z" fill="white"></path></svg>