<svg width="108" height="108" viewBox="0 0 108 108" fill="none" xmlns="http://www.w3.org/2000/svg"><path d="M13.7456 22.8801C13.7456 18.3774 17.3957 14.7273 21.8984 14.7273H86.1019C90.6046 14.7273 94.2547 18.3774 94.2547 22.8801V87.0836C94.2547 91.5863 90.6046 95.2364 86.1019 95.2364H21.8984C17.3957 95.2364 13.7456 91.5863 13.7456 87.0836V22.8801Z" fill="#EE4D2D"></path><path fill-rule="evenodd" clip-rule="evenodd" d="M26.1967 27.1874V41.6599H40.6691V27.1874H26.1967ZM24.9907 22.3633C22.9924 22.3633 21.3726 23.9832 21.3726 25.9814V42.8659C21.3726 44.8641 22.9924 46.484 24.9907 46.484H41.8752C43.8734 46.484 45.4933 44.8641 45.4933 42.8659V25.9814C45.4933 23.9832 43.8734 22.3633 41.8752 22.3633H24.9907Z" fill="white"></path><path fill-rule="evenodd" clip-rule="evenodd" d="M26.1967 67.8565V82.3289H40.6691V67.8565H26.1967ZM24.9907 63.0323C22.9924 63.0323 21.3726 64.6522 21.3726 66.6505V83.535C21.3726 85.5332 22.9924 87.1531 24.9907 87.1531H41.8752C43.8734 87.1531 45.4933 85.5332 45.4933 83.535V66.6505C45.4933 64.6522 43.8734 63.0323 41.8752 63.0323H24.9907Z" fill="#FFC645"></path><path fill-rule="evenodd" clip-rule="evenodd" d="M66.8754 27.1874V41.6599H81.3478V27.1874H66.8754ZM65.6694 22.3633C63.6712 22.3633 62.0513 23.9832 62.0513 25.9814V42.8659C62.0513 44.8641 63.6712 46.484 65.6694 46.484H82.5539C84.5521 46.484 86.172 44.8641 86.172 42.8659V25.9814C86.172 23.9832 84.5521 22.3633 82.5539 22.3633H65.6694Z" fill="#FFC645"></path><path d="M71.0962 34.4229C71.0962 32.7577 72.4461 31.4078 74.1113 31.4078C75.7765 31.4078 77.1264 32.7577 77.1264 34.4229C77.1264 36.0881 75.7765 37.438 74.1113 37.438C72.4461 37.438 71.0962 36.0881 71.0962 34.4229Z" fill="white"></path><path d="M30.418 34.4229C30.418 32.7577 31.7679 31.4078 33.4331 31.4078C35.0982 31.4078 36.4481 32.7577 36.4481 34.4229C36.4481 36.0881 35.0982 37.438 33.4331 37.438C31.7679 37.438 30.418 36.0881 30.418 34.4229Z" fill="white"></path><path d="M30.8535 75.5918C30.8535 73.9244 32.2052 72.5728 33.8726 72.5728C35.54 72.5728 36.8917 73.9244 36.8917 75.5918C36.8917 77.2592 35.54 78.6109 33.8726 78.6109C32.2052 78.6109 30.8535 77.2592 30.8535 75.5918Z" fill="white"></path><path d="M21.3726 54.9257C21.3726 53.2605 22.7225 51.9106 24.3876 51.9106C26.0528 51.9106 27.4027 53.2605 27.4027 54.9257C27.4027 56.5909 26.0528 57.9408 24.3876 57.9408C22.7225 57.9408 21.3726 56.5909 21.3726 54.9257Z" fill="white"></path><path d="M80.1655 54.9782C80.1655 53.313 81.5154 51.9631 83.1806 51.9631C84.8458 51.9631 86.1957 53.313 86.1957 54.9782C86.1957 56.6434 84.8458 57.9933 83.1806 57.9933C81.5154 57.9933 80.1655 56.6434 80.1655 54.9782Z" fill="white"></path><path d="M50.981 84.1626C50.981 82.4974 52.3309 81.1475 53.996 81.1475C55.6612 81.1475 57.0111 82.4974 57.0111 84.1626C57.0111 85.8277 55.6612 87.1776 53.996 87.1776C52.3309 87.1776 50.981 85.8277 50.981 84.1626Z" fill="white"></path><path d="M50.9204 43.4693C50.9204 41.8041 52.2703 40.4542 53.9355 40.4542C55.6007 40.4542 56.9506 41.8041 56.9506 43.4693C56.9506 45.1345 55.6007 46.4844 53.9355 46.4844C52.2703 46.4844 50.9204 45.1345 50.9204 43.4693Z" fill="white"></path><path d="M50.9204 54.9257C50.9204 53.2605 52.2703 51.9106 53.9355 51.9106C55.6007 51.9106 56.9506 53.2605 56.9506 54.9257C56.9506 56.5909 55.6007 57.9408 53.9355 57.9408C52.2703 57.9408 50.9204 56.5909 50.9204 54.9257Z" fill="white"></path><path d="M32.2271 54.3227C32.2271 52.9906 33.307 51.9106 34.6391 51.9106H43.0814C44.4135 51.9106 45.4934 52.9906 45.4934 54.3227V55.5288C45.4934 56.8609 44.4135 57.9408 43.0814 57.9408H34.6391C33.307 57.9408 32.2271 56.8609 32.2271 55.5288V54.3227Z" fill="white"></path><path d="M50.981 65.4444C50.981 64.1123 52.0609 63.0323 53.393 63.0323H61.8353C63.1674 63.0323 64.2474 64.1123 64.2474 65.4444V66.6505C64.2474 67.9826 63.1674 69.0625 61.8353 69.0625H53.393C52.0609 69.0625 50.981 67.9826 50.981 66.6505V65.4444Z" fill="white"></path><path d="M73.1211 65.4444C73.1211 64.1123 74.201 63.0323 75.5332 63.0323H83.9754C85.3076 63.0323 86.3875 64.1123 86.3875 65.4444V66.6505C86.3875 67.9826 85.3076 69.0625 83.9754 69.0625H75.5332C74.201 69.0625 73.1211 67.9826 73.1211 66.6505V65.4444Z" fill="white"></path><path d="M73.1211 76.5146C73.1211 75.1825 74.201 74.1025 75.5332 74.1025H83.9754C85.3076 74.1025 86.3875 75.1825 86.3875 76.5146V84.9569C86.3875 86.289 85.3076 87.3689 83.9754 87.3689H75.5332C74.201 87.3689 73.1211 86.289 73.1211 84.9569V76.5146Z" fill="white"></path><path d="M54.5391 22.3633C55.8713 22.3633 56.9512 23.4432 56.9512 24.7754L56.9512 33.2176C56.9512 34.5498 55.8712 35.6297 54.5391 35.6297L53.3331 35.6297C52.0009 35.6297 50.921 34.5498 50.921 33.2176L50.921 24.7754C50.921 23.4432 52.0009 22.3633 53.3331 22.3633L54.5391 22.3633Z" fill="white"></path></svg>