<svg width="108" height="108" viewBox="0 0 108 108" fill="none" xmlns="http://www.w3.org/2000/svg"><path d="M24.5454 16.5998C24.5454 11.7699 28.378 7.85449 33.1056 7.85449H76.8579C81.5856 7.85449 85.4181 11.7699 85.4181 16.5998V93.3638C85.4181 98.1937 81.5856 102.109 76.8579 102.109H33.1056C28.378 102.109 24.5454 98.1937 24.5454 93.3638V16.5998Z" fill="#EE4D2D"></path><path d="M56.9456 95.2365C56.9456 96.8632 55.6269 98.1819 54.0001 98.1819C52.3734 98.1819 51.0547 96.8632 51.0547 95.2365C51.0547 93.6097 52.3734 92.291 54.0001 92.291C55.6269 92.291 56.9456 93.6097 56.9456 95.2365Z" fill="#FD9E8B"></path><path d="M32.3999 18.468C32.3999 16.9442 33.5665 15.709 35.0055 15.709H74.9579C76.397 15.709 77.5635 16.9442 77.5635 18.468V85.6045C77.5635 87.1283 76.397 88.3635 74.9579 88.3635H35.0055C33.5665 88.3635 32.3999 87.1283 32.3999 85.6045V18.468Z" fill="#FF8066"></path><rect x="57" y="19.6365" width="39.2727" height="39.2727" rx="8" fill="#FFC645"></rect><rect x="11.7817" y="49.0908" width="39.2727" height="39.2727" rx="8" fill="#FFC645"></rect><rect x="20.6182" y="58.9091" width="20.6182" height="20.6182" rx="2" fill="white"></rect><path d="M41.2363 65.7817H34.9884C33.0166 65.7817 31.4181 67.3203 31.4181 69.2181C31.4181 71.116 33.0166 72.6545 34.9884 72.6545H41.2363" stroke="#FFC645" stroke-width="2"></path><path fill-rule="evenodd" clip-rule="evenodd" d="M34.8544 70.2C35.3966 70.2 35.8362 69.7604 35.8362 69.2181C35.8362 68.6759 35.3966 68.2363 34.8544 68.2363C34.3121 68.2363 33.8726 68.6759 33.8726 69.2181C33.8726 69.7604 34.3121 70.2 34.8544 70.2Z" fill="#FFC645"></path><path fill-rule="evenodd" clip-rule="evenodd" d="M69.6364 27.491C68.7326 27.491 68 28.2236 68 29.1273V48.7637C68 49.6215 68.66 50.3251 69.4999 50.3945C69.5026 49.5535 70.112 48.8728 70.8635 48.8728C71.6166 48.8728 72.2271 49.5566 72.2271 50.4001H73.5909C73.5909 49.5566 74.2014 48.8728 74.9545 48.8728C75.7076 48.8728 76.3181 49.5566 76.3181 50.4001H77.682C77.682 49.5566 78.2925 48.8728 79.0456 48.8728C79.7987 48.8728 80.4092 49.5566 80.4092 50.4001H81.7728C81.7728 49.5566 82.3833 48.8728 83.1365 48.8728C83.8879 48.8728 84.4974 49.5535 84.5001 50.3945C85.34 50.3251 86 49.6215 86 48.7637V29.1273C86 28.2236 85.2674 27.491 84.3636 27.491H69.6364ZM76.3739 35.8L77.9913 36.1913C79.1652 36.5043 80 37.5478 80 38.7739C80 40.0783 79.0348 41.1739 77.7826 41.3826V41.7478C77.7826 42.1913 77.4435 42.5304 77 42.5304C76.5565 42.5304 76.2174 42.1913 76.2174 41.7478V41.4087C74.9652 41.2522 74 40.1826 74 38.8783C74 38.4348 74.3391 38.0957 74.7826 38.0957C75.2261 38.0957 75.5652 38.4348 75.5652 38.8783C75.5652 39.4261 76.0087 39.8696 76.5565 39.8696H77.3391C77.9391 39.8696 78.4348 39.3739 78.4348 38.7739C78.4348 38.2783 78.1217 37.8609 77.6261 37.7304L76.0087 37.3391C74.8348 37.0261 74 35.9826 74 34.7565C74 33.4522 74.9652 32.3565 76.2174 32.1478V31.7826C76.2174 31.3391 76.5565 31 77 31C77.4435 31 77.7826 31.3391 77.7826 31.7826V32.1217C79.0348 32.2783 80 33.3478 80 34.6522C80 35.0957 79.6609 35.4348 79.2174 35.4348C78.7739 35.4348 78.4348 35.0957 78.4348 34.6522C78.4348 34.1043 77.9913 33.6609 77.4435 33.6609H76.6609C76.0609 33.6609 75.5652 34.1565 75.5652 34.7565C75.5652 35.2522 75.8783 35.6696 76.3739 35.8Z" fill="white"></path></svg>